<svg version="1.1" id="Layer_1" xmlns="http://www.w3.org/2000/svg" x="0" y="0" viewBox="0 0 256 256" style="enable-background:new 0 0 256 256" xml:space="preserve"><style>.st0{fill:#4671c6}.st3{fill:#a4c9ff}.st4{fill:#3762cc}.st5{fill:#e0ebfc}.st6{fill:#6bdddd}</style><path class="st3" d="M8 34.61v164.383a4 4 0 0 0 2.829 3.825L88 226.451V53.701L13.171 30.785C10.6 29.998 8 31.921 8 34.61zM242.829 224.868c2.571.787 5.171-1.136 5.171-3.825V56.66a4 4 0 0 0-2.829-3.825C164.251 28.053 169.733 29.568 168 29.568v172.567c.933 0-3.88-1.372 74.829 22.733z"/><path class="st3" d="M168 29.568c-1.732 0 4.024-1.599-80 24.133v172.75c84.284-25.812 79.068-24.317 80-24.317V29.568z"/><path class="st0" d="m32.871 49.368-10.285-3.15A2 2 0 0 0 20 48.131v143.467a2 2 0 0 0 1.414 1.912C85.509 213.139 72.512 209.12 88 214.035V65.701L32.871 49.368zM223.129 205.65l10.285 3.13c1.286.391 2.586-.564 2.586-1.9V64.329c0-2.097 2.474-.717-56-18.51l-12-3.784v147.386l55.129 16.229zM156 45.427l12-3.392v147.333l-80 24.667V65.701z"/><path class="st6" d="M69.667 75.376a4.576 4.576 0 0 0-3.183-4.358l-8.957-2.859a4.574 4.574 0 0 0-5.362 2.088c-1.705 2.983-1.921 3.604-2.921 4.354-.228.171-12.492 9.378-12.724 9.526-8.879 5.65-10.852 6.189-10.852 9.417 0 8.441-.271 9.132.928 10.714 6.196 8.179 6.74 9.775 9.679 9.775 2.709 0 5.495-.441 7.012 2.446 3.369 6.41 4.001 8.97 7.478 8.97a4.572 4.572 0 0 1 4.331 3.011l.81 2.228a4.573 4.573 0 0 0 4.299 3.011c2.98 0 6.614.565 7.82-3.167 2.391-7.398 4.658-3.842 7.755-5.778 2.563-1.602 4.456-3.275 7.196-1.874 3.357 1.717 4.615 2.702 6.824 1.991 7.07-2.272 9.751-2.456 10.316-5.937 1.518-9.358 1.442-9.292 1.734-10.029l3.85-9.738a4.574 4.574 0 0 0-2.452-5.886c-1.307-.56-2.813-1.015-3.634-2.93l-1.581-3.69a4.575 4.575 0 0 0-5.754-2.502c-1.819.655-3.943 1.787-6.245.082-5.322-3.942-6.444-5.335-9.053-4.776l-1.78.381a4.571 4.571 0 0 1-5.534-4.47zM233.414 208.78c1.286.391 2.586-.564 2.586-1.9v-76.696a3.62 3.62 0 0 0-.294-.536c-6.446-9.534-4.425-7.037-9.964-12.345a3.641 3.641 0 0 0-5.702.861c-1.333 2.398-3.195 1.873-11.06 1.873-1.328 0-.39-.327-16.362 8.918-3.742 2.166-6.709-3.501-10.047-3.501-3.182 0-6.074-.508-7.053 2.521-2.164 6.695-1.21 5.162-4.954 8.466a3.64 3.64 0 0 1-4.983-.156l-4.932-4.932a3.641 3.641 0 0 0-5.707.719c-3.733 6.3-1.768 3.85-7.944 9.717a3.64 3.64 0 0 0-.954 3.767c4.431 13.609 3.132 11.783 7.557 13.75 2.94 1.306 2.086 4.285 1.776 7.496a3.64 3.64 0 0 1-4.242 3.237c-7.619-1.314-3.639-1.554-17.397 1.966-3.159.808-2.739 4.055-2.739 5.31 0 6.051-11.333 2.731-11.333 8.782 0 11.849-1.384 9.309 9.483 14.287 1.745.799-.494 1.12 38.85-11.011v.053c63.484 18.683 52.105 15.303 65.415 19.354z"/><circle cx="62.419" cy="111.87" r="6.606" style="fill:#ffea92"/><path class="st5" d="m64.263 126.919-1.293-4.83c-.512-1.914 2.384-2.69 2.898-.775l1.293 4.83c.513 1.912-2.383 2.693-2.898.775zM92.24 162.988a1.498 1.498 0 0 1 1.473-1.229c.013 0 1.24.202 2.222.202.208 0 .417-.006.627-.018l6.746-.398c2.068 0 2.071 2.882.173 2.995-6.415.379-11.752 1.233-11.241-1.552zm19.147-1.509a1.498 1.498 0 0 1 .343-2.093c1.262-.907 1.399-1.179 6.408-6.815 1.312-1.477 3.561.512 2.242 1.993-4.638 5.219-7.401 9.13-8.993 6.915zm-26.823-2.547c-.992-1.466-1.092-1.91-4.103-9.104a1.501 1.501 0 0 1 2.768-1.158c3.059 7.308 3.048 7.442 3.82 8.582 1.106 1.631-1.369 3.327-2.485 1.68zm78.93-10.026a1.514 1.514 0 0 1 1.626-1.366c3.237.279 2.595.281 9.121-1.12 1.968-.419 2.542 2.522.629 2.934-3.325.714-11.664 2.91-11.376-.448zm-17.966-.04c-1.963-.17-1.726-3.143.256-2.989l9.667.832c1.887.164 1.769 2.995-.125 2.995-.107-.001-9.692-.829-9.798-.838zm-19.683-3.047c3.726-1.619 6.297-1.116 10.273-.774 1.957.17 1.734 3.164-.256 2.989-3.54-.305-5.745-.801-8.822.536-1.821.79-3.005-1.967-1.195-2.751zm67.436 1.774c-4.528-.996-4.63-1.193-8.924-.273a1.486 1.486 0 0 1-.317.034c-1.779 0-2.059-2.59-.312-2.967 4.896-1.048 5.529-.75 10.196.277 1.915.42 1.309 3.368-.643 2.929zm-117.802-4.806a10.783 10.783 0 0 0-1.681-.885c-2.961-1.239-8.512-5.805-5.868-7.457 2.252-1.402 1.902 2.547 7.024 4.689 1.682.704 3.591 1.668 2.598 3.206a1.5 1.5 0 0 1-2.073.447z"/><path d="M220.241 140.217a2.975 2.975 0 0 0-4.031-1.203l-9.24 4.991-4.991-9.24a2.976 2.976 0 0 0-5.235 2.827l4.991 9.24-9.24 4.991a2.975 2.975 0 0 0 2.828 5.234l9.24-4.991 4.991 9.24a2.976 2.976 0 0 0 5.235-2.827l-4.991-9.24 9.24-4.991a2.975 2.975 0 0 0 1.203-4.031z" style="fill:#f9a7a7"/><path class="st4" d="M88 228.452c-.196 0-.394-.029-.585-.088L10.243 204.73A5.97 5.97 0 0 1 6 198.993V34.61c0-1.923.887-3.681 2.433-4.824a5.944 5.944 0 0 1 5.325-.913L88.585 51.79A2 2 0 0 1 90 53.702v172.75a2 2 0 0 1-2 2zM11.994 32.608c-.421 0-.833.134-1.183.394A1.98 1.98 0 0 0 10 34.61v164.383a1.99 1.99 0 0 0 1.415 1.913L86 223.748V55.181L12.586 32.697a2.053 2.053 0 0 0-.592-.089zM244.018 227.048a6.05 6.05 0 0 1-1.775-.269c-21.08-6.456-36.168-11.084-46.981-14.401-20.53-6.297-26.108-8.008-27.129-8.247a2 2 0 0 1-2.132-1.997V29.568a2 2 0 0 1 2-2l.114-.005c1.218-.084 1.214-.083 33.118 9.708 10.75 3.299 25.165 7.723 44.525 13.652a5.97 5.97 0 0 1 4.243 5.737v164.383a5.944 5.944 0 0 1-2.433 4.824 5.945 5.945 0 0 1-3.55 1.181zM170 200.53c2.671.735 9.202 2.739 26.434 8.025 10.813 3.316 25.901 7.945 46.98 14.4a1.988 1.988 0 0 0 1.774-.304 1.98 1.98 0 0 0 .811-1.608V56.66a1.99 1.99 0 0 0-1.415-1.913c-19.361-5.929-33.776-10.353-44.527-13.652-19.055-5.848-27.015-8.291-30.059-9.149V200.53z"/><path class="st4" d="M88 228.452a2 2 0 0 1-2-2V53.702a2 2 0 0 1 1.415-1.912 88065.658 88065.658 0 0 0 46.233-14.175c33.044-10.141 33.043-10.146 34.25-10.051l.102.004a2 2 0 0 1 2 2v172.566a2 2 0 0 1-2.131 1.997c-1.085.258-7.074 2.095-29.002 8.821-11.57 3.549-27.719 8.501-50.281 15.411-.192.06-.39.089-.586.089zm2-173.271v168.567c21.216-6.498 36.571-11.208 47.694-14.619 18.561-5.692 25.508-7.823 28.306-8.593V31.948c-3.113.877-11.343 3.403-31.179 9.49A79079.897 79079.897 0 0 1 90 55.181z"/><path class="st4" d="M88 216.035c-.203 0-.407-.031-.605-.094l-4.925-1.566c-6.611-2.106-6.611-2.106-32.834-10.133l-28.807-8.82A3.98 3.98 0 0 1 18 191.597V48.131c0-1.282.591-2.454 1.622-3.216a3.96 3.96 0 0 1 3.549-.608l10.278 3.147 55.12 16.331A2 2 0 0 1 90 65.702v148.333a2 2 0 0 1-2 2zM22 48.13v143.467l28.807 8.82c26.244 8.033 26.244 8.033 32.877 10.146L86 211.3V67.195L32.303 51.286l-.017-.005L22 48.13zM234.012 210.87a4.04 4.04 0 0 1-1.18-.177l-10.279-3.128-55.118-16.226a1.999 1.999 0 0 1-1.435-1.918V42.035c0-.637.304-1.236.817-1.613a1.994 1.994 0 0 1 1.784-.294l12 3.784c13.574 4.13 23.873 7.23 31.674 9.578 12.206 3.674 18.333 5.518 21.419 6.621 2.763.987 4.432 1.754 4.311 4.08l-.005.138v142.55c0 1.274-.588 2.44-1.614 3.2a3.967 3.967 0 0 1-2.374.791zM170 187.925l53.694 15.807a.084.084 0 0 1 .017.005l10.286 3.13L234 64.519c-1.813-.858-8.533-2.881-22.877-7.198-7.805-2.349-18.107-5.45-31.705-9.588L170 44.762v143.163z"/><path class="st4" d="M88 216.035a2.003 2.003 0 0 1-2.001-2V65.702c0-.884.581-1.664 1.429-1.917l68-20.275.027-.008 12-3.392a2 2 0 0 1 2.543 1.925v147.333a2 2 0 0 1-1.411 1.911l-80 24.667a1.99 1.99 0 0 1-.587.089zm2-148.843v144.133l76-23.433V44.678l-9.443 2.669L90 67.192z"/></svg>