<?xml version="1.0" encoding="iso-8859-1"?>
<!-- Generator: Adobe Illustrator 19.0.0, SVG Export Plug-In . SVG Version: 6.00 Build 0)  -->
<svg version="1.1" id="Layer_1" xmlns="http://www.w3.org/2000/svg" xmlns:xlink="http://www.w3.org/1999/xlink" x="0px" y="0px"
	 viewBox="0 0 512 512" style="enable-background:new 0 0 512 512;" xml:space="preserve">
<polygon style="fill:#E6E6E6;" points="286.378,211.608 282.406,249.308 256,499.819 229.583,249.308 225.611,211.608 "/>
<circle style="fill:#F95428;" cx="256.006" cy="114.203" r="102.017"/>
<path style="fill:#E54728;" d="M294.383,177.829c-56.341,0-102.013-45.673-102.013-102.013c0-18.311,4.849-35.479,13.296-50.336
	c-30.854,17.543-51.678,50.688-51.678,88.718c0,56.341,45.673,102.013,102.013,102.013c38.03,0,71.174-20.825,88.718-51.678
	C329.863,172.982,312.694,177.829,294.383,177.829z"/>
<path style="fill:#B3B3B3;" d="M286.378,211.608l-3.972,37.702c-8.42,2.266-17.267,3.461-26.406,3.461s-17.998-1.206-26.418-3.461
	l-3.972-37.702H286.378z"/>
<path style="fill:#333333;" d="M370.199,114.199C370.199,51.229,318.97,0,256,0S141.801,51.229,141.801,114.199
	c0,48.26,30.091,89.622,72.495,106.314l29.579,280.579c0.654,6.201,5.883,10.908,12.119,10.908c6.235,0,11.464-4.707,12.118-10.908
	l29.579-280.575C340.103,203.827,370.199,162.462,370.199,114.199z M255.996,383.587l-16.486-156.384
	c5.386,0.782,10.891,1.195,16.491,1.195c5.597,0,11.097-0.412,16.481-1.193L255.996,383.587z M256,204.027
	c-49.53,0-89.828-40.296-89.828-89.828S206.47,24.371,256,24.371s89.828,40.296,89.828,89.828S305.532,204.027,256,204.027z"/>
<ellipse transform="matrix(-0.7071 -0.7071 0.7071 -0.7071 445.7942 341.8538)" style="fill:#F47C6C;" cx="293.697" cy="78.6" rx="37.113" ry="25.87"/>
<g>
</g>
<g>
</g>
<g>
</g>
<g>
</g>
<g>
</g>
<g>
</g>
<g>
</g>
<g>
</g>
<g>
</g>
<g>
</g>
<g>
</g>
<g>
</g>
<g>
</g>
<g>
</g>
<g>
</g>
</svg>
