<svg xmlns="http://www.w3.org/2000/svg" xmlns:xlink="http://www.w3.org/1999/xlink" version="1.1" x="0px" y="0px" viewBox="0 0 100 125" style="enable-background:new 0 0 100 100;" xml:space="preserve">
    <g transform="rotate(180, 50, 62.5)">
        <g>
            <path d="M86.7,54c0-17.2-2.8-30.5-8.4-39.7c-0.2-0.3-0.3-0.5-0.4-0.7c-1-1.6-1.8-2.1-2.9-2.9l-0.2-0.2c-0.4-0.3-0.8-0.5-1.2-0.6    C70.8,8.6,67,8.4,66,8.4c-1-1.1-3.2-2.8-7.9-2.9c-5.5-0.2-7.8,0-8.1,0c-0.3,0-2.5-0.2-8.1,0c-4.6,0.1-6.9,1.8-7.9,2.9    c-0.8,0-4.8,0.2-7.8,1.6c-0.4,0.2-0.8,0.4-1.1,0.6c0,0,0,0-0.1,0l-0.2,0.1c-1.1,0.7-1.8,1.2-2.9,2.9c-0.1,0.1-0.2,0.4-0.4,0.6    c-5.6,9.1-8.4,22.5-8.4,39.7c-0.1,2.2,0.5,4,1.6,5c0,0.1,0.1,0.1,0.2,0.2c0.5,0.4,1.2,0.7,1.9,0.8c0.1,0,0.2,0,0.3,0    c0.2,0,0.5,0,0.8-0.1v16.7c0,0.3,0,6.7,2.9,10.1c3.3,4.1,8.7,7,13.7,7.6c0.1,0.1,0.2,0.1,0.3,0.1c0.1,0,0.1,0,0.2,0    c0.4,0,0.8,0,1.2,0H50c0,0,0,0,0,0c0,0,0,0,0,0h13.8c0.5,0,0.9,0,1.4-0.1c0.1,0,0.2,0.1,0.2,0.1c0.1,0,0.2,0,0.3-0.1    c5-0.6,10.2-3.5,13.4-7.6c2.9-3.5,2.9-9.9,2.9-10.2V60c0.2,0,0.5,0,0.7,0c0.1,0,0.2,0,0.3,0c0.7-0.1,1.3-0.4,1.8-0.8    c0.1,0,0.2-0.1,0.2-0.2C86.2,58,86.8,56.2,86.7,54z M77.1,14.2c0.1,0.2,0.2,0.4,0.4,0.7c5.5,9,8.3,22.1,8.2,39.2    c0,0.8,0,2.2-0.6,3.3C84,33.6,78,17.7,75.8,12.6C76.3,13,76.6,13.5,77.1,14.2z M34.3,9.8c0,0,0.1-0.2,0.3-0.4    c0.6-0.8,2.6-2.8,7.4-2.8c5.8-0.2,8,0,8,0c0,0,0,0,0,0c0,0,0,0,0,0c0,0,2.2-0.2,8,0c4.8,0.1,6.8,2,7.4,2.8    c0.2,0.2,0.3,0.4,0.3,0.4c0,0,2.6,4.8,2.4,11.4c-0.2,0.8-0.5,2.1-3.8,1.8l-14.3-0.3c0,0,0,0,0,0c0,0,0,0,0,0L35.7,23    c-3.3,0.3-3.6-0.9-3.8-1.7C31.7,14.6,34.3,9.9,34.3,9.8z M25.8,11.4c0.3-0.2,0.6-0.3,0.9-0.5c2.3-1.1,5.2-1.4,6.7-1.5    c-0.4,0.8-2.7,5.4-2.4,12c0.3,1.5,1.2,2.9,4.8,2.6L50,23.7L64.3,24c0.4,0,0.7,0.1,1,0.1c2.8,0,3.5-1.3,3.8-2.7    c0.2-6.6-2.1-11.2-2.5-11.9c1.5,0.1,4.3,0.4,6.6,1.5c0.3,0.1,0.6,0.3,0.9,0.5c0.3,0.6,1.5,3.1,3,7.4c0,0,0,0.1,0,0.1    c0,0-0.2,3.1-4.1,6.7c-3.3,3.6-4,7.7-4.4,15.4c0,0.6,0,7.9,0,8.3c0,0.1,0,0.7,0.2,1.3H31.2c0.1-0.6,0.2-1.2,0.2-1.3    c0-0.3,0-7.7,0-8.3C31,33.3,30.3,29.2,27,25.6c-3.9-3.6-4.1-6.6-4.1-6.6c0,0,0-0.1,0-0.1C24.3,14.6,25.5,12,25.8,11.4z M14.8,57.3    c-0.5-1.1-0.6-2.5-0.6-3.3c0-17,2.8-30.2,8.2-39.1c0.2-0.3,0.3-0.5,0.4-0.6c0.5-0.7,0.9-1.2,1.3-1.6C22,17.7,16,33.6,14.8,57.3z     M17,59c-0.5-0.1-0.9-0.3-1.3-0.5c0.7-16.9,3.8-29.8,6.4-37.8c0.5,1.1,1.1,2.3,1.7,3.4c1.9,3.2,4.1,6.6,4.2,12.6c0,0.7,0,8.7,0,8.9    c0,0.4-0.1,0.9-0.2,1.6h-6.4c-0.1,0-0.2,0-0.2,0.1c-0.1,0-0.2,0.1-0.2,0.2c-0.3,0.2-0.6,0.5-1,0.5c-0.5,0.2-1.1,0.4-1.7,0.4    C17.3,59,17.1,59,17,59z M15.3,60.5c0.2,0,0.5,0.1,0.8,0.1c0.3,0,0.7,0,1-0.1v16.7c0,0.2,0,6.1,2.5,9c3.1,3.8,8.2,6.5,12.7,7    c0.1,0,0.2,0.1,0.3,0.1c0.1,0,0.1,0,0.2,0c0.4,0,0.7,0,1,0H32v2.3c-4.8-0.8-9.8-3.5-12.9-7.3c-2.5-3-2.5-8.3-2.5-8.4V60.7    C16.2,60.6,15.8,60.5,15.3,60.5z M84.1,88.1c-3.1,3.7-8.1,6.4-12.9,7.2V93h-0.1c0.4,0,0.8,0,1.2,0c0.1,0,0.2,0,0.3-0.1    c0.1,0,0.2,0,0.3-0.1c4.5-0.6,9.6-3.2,12.7-7c2.5-2.9,2.5-8.8,2.5-9V60.5c-0.5,0.1-0.9,0.1-1.2,0.1c-0.1,0-0.1,0-0.2,0    c-0.1,0-0.2,0-0.3,0v16.6C86.6,79.7,86.6,85.1,84.1,88.1z M84.7,60.5c-0.7-0.1-1.3-0.2-1.7-0.4c-0.4-0.1-0.7-0.4-1-0.5    c-0.1-0.1-0.1-0.1-0.2-0.2c0,0-0.1-0.1-0.2-0.1h-6.4c-0.1-0.6-0.2-1.2-0.2-1.6c0-0.3,0-8.2,0-8.9c0.1-6.2,2.3-9.5,4.2-12.6    c0.6-1.1,1.2-2.3,1.7-3.4c2.6,7.9,5.7,20.9,6.4,37.8C85.6,60.3,85.2,60.4,84.7,60.5z"/>
        </g>
    </g>
</svg>
